<svg width="30" height="30" viewBox="0 0 30 30" fill="none" xmlns="http://www.w3.org/2000/svg">
<g style="mix-blend-mode:exclusion">
<path d="M20 10C21.9891 10 23.8968 10.7902 25.3033 12.1967C26.7098 13.6032 27.5 15.5109 27.5 17.5V26.25H22.5V17.5C22.5 16.837 22.2366 16.2011 21.7678 15.7322C21.2989 15.2634 20.663 15 20 15C19.337 15 18.7011 15.2634 18.2322 15.7322C17.7634 16.2011 17.5 16.837 17.5 17.5V26.25H12.5V17.5C12.5 15.5109 13.2902 13.6032 14.6967 12.1967C16.1032 10.7902 18.0109 10 20 10V10Z" stroke="#E21B6D" stroke-width="2" stroke-linecap="round" stroke-linejoin="round"/>
<path d="M7.50001 11.25H2.50001V26.25H7.50001V11.25Z" stroke="#E21B6D" stroke-width="2" stroke-linecap="round" stroke-linejoin="round"/>
<path d="M5.00001 7.5C6.38072 7.5 7.50001 6.38071 7.50001 5C7.50001 3.61929 6.38072 2.5 5.00001 2.5C3.6193 2.5 2.50001 3.61929 2.50001 5C2.50001 6.38071 3.6193 7.5 5.00001 7.5Z" stroke="#E21B6D" stroke-width="2" stroke-linecap="round" stroke-linejoin="round"/>
</g>
</svg>
