<svg width="50" height="50" viewBox="0 0 50 50" fill="none" xmlns="http://www.w3.org/2000/svg">
<g clip-path="url(#clip0_45_12)">
<path d="M14.9414 43.0313C13.0373 41.5313 11.0039 40.0937 9.61643 38.0729C6.69559 34.5062 4.44559 30.3771 2.90809 26.0375C1.97893 23.2146 1.65809 20.1875 0.46226 17.475C-0.791906 15.5083 0.676844 13.3542 2.83309 12.7271C3.79143 12.5438 5.48309 11.6375 3.44351 12.2854C1.61434 13.6271 1.43726 11.0667 3.31226 10.9063C4.59351 10.7354 5.06226 9.6875 4.62476 8.74583C3.25184 7.85 7.95809 6.86458 5.58934 5.52917C3.12684 2.86667 9.04143 2.35417 7.58309 5.375C7.23518 7.69792 11.7164 4.95 10.6768 7.63125C11.7331 8.92083 14.6352 7.925 14.5623 9.73333C16.1039 9.8375 16.631 11.1333 18.0768 11.2333C19.5768 11.9104 22.2914 12.4417 22.7998 14.1313C21.3143 15.3083 17.8727 11.7021 17.7081 14.9583C18.156 19.7708 18.0414 24.7271 19.8018 29.3083C20.6352 32.0833 22.6539 34.2667 24.4768 36.4292C26.2206 38.5458 28.5831 40.0333 30.9914 41.2896C33.1039 42.2854 35.381 42.9458 37.6852 43.3604C38.6185 42.6458 40.2685 39.9917 41.7227 41.1104C41.7914 42.3687 38.831 43.7417 41.5831 43.6021C43.1998 43.1146 44.3206 44.8521 45.6518 43.2854C46.8768 44.7375 50.7477 42.3562 49.8748 45.3271C48.6956 46.0854 46.9748 45.6271 45.7935 46.6729C43.8456 45.7 42.2935 47.5437 40.1373 47.3104C37.7414 47.7396 35.306 47.9146 32.8789 47.9167C28.8956 47.6021 24.8268 47.4688 21.0373 46.0833C18.9018 45.4625 16.8206 44.2458 14.9435 43.0313H14.9414ZM18.306 44.4896C20.3893 45.3896 22.4289 46.3396 24.7123 46.6271C28.3373 47.1292 32.081 47.9062 35.7185 47.1979C34.0727 46.4542 32.3685 47.4896 30.7289 46.6667C28.7623 47.0896 26.6518 46.5583 24.6518 46.2979C22.3768 45.2854 19.9227 44.5896 17.7935 43.2729C15.1331 42.3021 19.1685 44.5187 19.8893 44.7C21.5518 45.6437 18.0602 44.2146 17.5664 43.8229C16.1748 43.0417 15.9956 43.2042 17.4289 43.9979C17.7185 44.1667 18.0039 44.3437 18.3039 44.4875L18.306 44.4896ZM14.3393 41.6854C16.3602 42.4333 14.331 40.2646 13.4039 40.3896C12.9935 39.6792 11.8373 39.2292 12.6539 38.8479C11.1852 39.3562 11.1164 36.9104 10.4248 37.2583C8.87268 36.7688 9.82059 35.0313 7.97268 33.9667C7.80393 32.8417 6.13518 31.8667 5.60184 30.1708C5.36643 29.3042 3.71643 26.8104 4.73101 29.1292C5.59351 31.3625 7.11226 33.275 8.37684 35.1854C9.35601 37.0042 10.5164 38.9062 12.3039 40.0396C12.9081 40.6187 13.4873 41.5042 14.3393 41.6854ZM8.52059 35.2958C8.58934 34.9917 8.88934 35.9562 8.52059 35.2958V35.2958ZM16.7581 42.5812C17.206 42.3812 16.1143 42.3312 16.7581 42.5812V42.5812ZM17.8539 42.9812C17.7414 42.4292 17.3539 43.2896 17.8539 42.9812V42.9812ZM19.2289 43.5542C19.881 42.9312 18.2206 43.1625 19.2289 43.5542V43.5542ZM21.5789 44.8667C21.9768 44.2792 20.3081 44.6437 21.5789 44.8667V44.8667ZM17.0623 41.7146C18.0768 41.0583 15.7498 41.7063 17.0623 41.7146V41.7146ZM18.0914 42.2271C18.0623 41.8812 17.7248 42.3833 18.0914 42.2271V42.2271ZM23.2373 45.4396C24.0664 45.9604 28.0706 46.5854 25.5623 45.6542C25.1435 45.7417 20.9143 44.4583 23.2373 45.4396ZM15.0685 39.0771C14.9873 38.7292 13.7852 38.6917 15.0685 39.0771V39.0771ZM17.4643 40.4729C18.0893 40.0375 16.1706 40.1396 17.4643 40.4729V40.4729ZM19.4789 41.7083C20.3748 41.3708 18.0268 41.3687 19.4789 41.7083V41.7083ZM14.0935 38.0146C15.0643 38.7604 18.0102 38.1104 15.581 37.5708C14.4768 36.9812 11.9831 36.5792 13.681 37.925L14.0935 38.0146ZM20.8435 42.1354C21.2477 41.4479 19.1477 41.7417 20.8435 42.1354V42.1354ZM18.7935 40.5042C21.1685 41.1771 16.7977 39.0042 18.2081 40.2583L18.5206 40.4L18.7914 40.5042H18.7935ZM22.906 42.8812C25.1539 42.9021 20.8748 42.5729 22.906 42.8812V42.8812ZM13.2289 36.7146C13.1414 36.2958 12.6748 36.75 13.2289 36.7146V36.7146ZM26.7081 45.0146C26.7685 44.2583 25.9748 45.5771 26.7081 45.0146V45.0146ZM17.0643 39.0646C16.9289 38.6667 16.3623 39.0479 17.0643 39.0646V39.0646ZM13.4414 36.4521C14.7331 36.375 11.6748 35.8833 13.4414 36.4521V36.4521ZM9.14976 33.6771C8.98934 33.0583 7.74559 32.5646 9.14976 33.6771V33.6771ZM20.4164 40.8333C20.1789 40.5625 20.3039 40.8917 20.4164 40.8333V40.8333ZM27.4289 45.1354C27.4081 44.725 27.0477 45.2917 27.4289 45.1354V45.1354ZM19.7956 40.1917C19.9206 39.6604 18.6935 40.0312 19.7956 40.1917V40.1917ZM14.5727 36.875C15.531 36.7729 13.0331 36.2271 14.5727 36.875V36.875ZM23.4102 42.3687C24.906 41.775 21.9518 42.0771 23.4102 42.3687V42.3687ZM18.8123 39.25C20.5373 39.4708 16.7602 38.0771 18.4352 39.125L18.8123 39.25ZM24.806 42.9333C26.4164 41.9708 25.8852 45.1875 27.5373 43.2042C29.1664 42.0167 26.131 44.6771 28.1393 43.4187C29.5914 42.4458 31.7373 43.8771 33.0914 44.3458C34.0664 44.2979 35.0143 45.1896 36.0143 44.6479C37.9373 44.1271 32.2518 43.8771 33.7435 42.9604C31.9831 43.4708 30.681 42.3479 29.8164 41.2208C27.8414 40.7646 25.5581 39.7562 24.5727 38.0083C24.1727 37.3521 25.1539 38.1 24.2268 37.0292C23.0373 35.9708 22.4435 34.7688 21.6435 33.4833C20.6914 32.975 20.581 31.4771 20.4831 33.4333C20.4914 32.1979 19.331 31.3667 19.0477 31.7125C19.0435 30.5229 20.2893 31.1188 19.4164 30.2396C19.2289 29.0063 18.6102 27.7208 18.4248 26.3292C18.1373 25.6583 18.3831 24.2229 17.4393 25.7417C17.0956 27.3458 17.3248 23.7688 17.8602 24.95C18.5623 23.7438 17.6102 23.8875 17.5685 24.0542C18.0268 23.0375 17.8602 21.5958 17.4498 22.1458C17.6935 21.0688 17.8352 18.1833 17.0852 18.6958C17.5393 17.5708 17.9477 13.5438 15.9727 15.0792C15.1727 15.0896 13.7893 15.3708 13.1331 15.6958C15.1873 16.8271 12.9268 16.1042 12.0914 15.925C11.9831 16.9708 11.1539 16.5188 10.1206 16.5292C11.7727 16.7333 9.31643 18.2167 8.36851 17.6417C7.13934 18.2292 9.43101 19.6979 8.39351 20.1521C8.52059 20.8354 6.50809 19.9042 6.66434 21.4854C5.47059 20.9833 6.50184 23.3604 7.09976 22.5563C9.13101 23.1063 8.52893 24.3604 8.58101 25.55C8.24976 26.2438 6.94559 23.9188 8.28934 24.0271C7.23101 22.3042 7.11851 23.4042 6.23726 24.2042C6.03101 24.2625 8.48518 25.3438 6.94559 25.8771C8.29976 26.0854 8.33726 27.2729 8.61226 28.0229C9.42684 28.8708 9.26018 27.0854 10.2352 28.1063C9.61851 27.1979 6.97059 25.5479 9.10184 26.0771C9.09143 25.1625 8.71643 24.425 9.37059 24.4438C10.0164 23.2729 8.69351 27.3333 10.1518 25.8438C10.5539 25.6667 10.6539 24.6708 11.381 25.9375C12.4331 26.975 11.7602 27.725 10.2748 26.7771C10.5393 27.6792 12.2623 28 11.9393 29.4125C12.2831 30.6521 12.7623 30.1958 13.181 30.125C13.5102 31.3292 13.6956 30.4438 13.7123 29.8688C15.2143 30.1917 14.8623 31.0792 15.3331 31.7021C16.3685 32.1688 13.8498 28.5313 15.6289 30.6063C17.4998 32.2958 16.331 33.0021 14.6498 32.7313C15.7123 32.6458 16.056 34.1688 17.3852 34.1146C18.5977 34.6917 19.4185 36.9062 17.3289 35.9833C16.6039 35.3312 14.0393 34.525 16.1352 35.7667C18.0706 36.6625 19.606 37.2 21.4727 38.3229C22.806 39.2771 23.3852 40.3688 23.8893 40.5854C22.7685 41.1208 20.5081 40.1562 22.1873 39.8604C21.1393 39.6708 19.9623 39.1417 20.9643 40.4437C21.8185 41.1583 23.9852 41.0812 24.3748 41.1625C24.0435 41.8875 23.4789 41.9458 24.3873 42.0021C23.3748 42.5437 24.7123 42.6271 24.806 42.9354V42.9333ZM22.7352 37.0833C22.1185 36.4375 21.9581 35.2292 22.6248 36.2813C22.9664 36.4188 23.7185 38.2542 22.7352 37.0833ZM29.481 41.3687C29.8664 41.3458 29.4935 41.6604 29.481 41.3687V41.3687ZM21.7602 35.5021C21.7373 34.5271 21.9831 36.2542 21.7602 35.5021V35.5021ZM21.0893 34.6C20.3143 33.1021 22.0685 35.025 21.0893 34.6V34.6ZM12.9643 28.9917C13.4185 28.8688 13.1873 29.7708 12.9643 28.9917V28.9917ZM19.431 32.4958C19.7102 31.4458 19.7602 33.3792 19.431 32.4958V32.4958ZM14.8623 29.3188C14.5393 28.7396 15.5352 29.8625 14.8623 29.3188V29.3188ZM18.7831 30.5771C18.0498 28.9313 19.3039 29.6771 18.9456 30.8479L18.7831 30.5771ZM12.0206 26.0667C11.6914 25.525 11.1498 23.9417 11.3248 23.4583C11.4831 24.2458 12.9998 26.8479 12.0685 24.5375C11.0393 22.6 13.2977 25.1667 13.531 25.65C13.6373 26.1292 12.8956 25.5188 13.3977 26.6458C12.481 25.3604 12.856 27.3542 12.0206 26.0667ZM9.93101 24.6271C10.0164 23.3708 10.4102 25.4875 9.93101 24.6271V24.6271ZM10.8706 24.95C11.3185 24.0021 11.631 26.2708 10.8706 24.95V24.95ZM8.61018 23.2C7.83101 22.4292 7.26851 21.7146 8.64559 22.7208C9.17684 22.7417 7.46643 21.1 8.77268 22.2C10.1477 22.45 9.45184 24.4542 8.61018 23.2ZM9.79768 23.1688C10.2498 22.7208 10.0373 23.6104 9.79768 23.1688V23.1688ZM10.5268 23.4042C9.84351 22.1188 11.3602 23.9417 10.5268 23.4042V23.4042ZM9.07476 22.0146C6.81226 20.0021 11.9185 23.0688 9.44351 22.3896L9.07476 22.0146ZM15.556 25.7813C14.5768 25.1938 15.2977 21.6479 15.631 24.0729C16.5831 23.7646 15.5789 25.325 16.2873 25.3104C16.1768 26.2958 15.8581 26.65 15.5581 25.7813H15.556ZM17.9518 27.1979C18.0498 26.1292 18.156 27.9271 17.9518 27.1979V27.1979ZM17.5352 26.7854C17.6456 26.3292 17.5477 27.3229 17.5352 26.7854V26.7854ZM9.52059 21.3542C8.06851 19.3479 13.7435 23.3813 10.4518 21.8625C10.1081 21.7729 9.69351 21.7396 9.52059 21.3542ZM14.1373 23.8021C13.9998 22.1146 14.4435 24.0813 14.1373 23.8021V23.8021ZM17.6414 26.05C17.9123 25.0875 17.6623 26.6854 17.6414 26.05V26.05ZM9.74143 20.5875C10.606 20.4042 13.3206 22.1063 10.8268 21.075C10.5498 20.7667 9.95809 20.9083 9.74143 20.5875ZM17.1581 24.2854C17.2498 22.5583 17.6748 23.2542 17.1623 24.5313L17.1581 24.2854ZM10.3852 19.9875C10.7373 19.4708 9.44976 17.6542 10.5706 19.3354C11.0539 19.7208 11.9706 19.9813 11.1602 20.1417C12.4331 21.2646 10.8498 20.4458 10.3852 19.9875V19.9875ZM16.7914 23.7458C17.0352 21.7792 17.006 24.8979 16.7914 23.7458V23.7458ZM9.64976 18.1708C9.91851 18.0563 9.79143 18.5292 9.64976 18.1708V18.1708ZM11.3206 19.1667C11.7498 18.2625 12.1123 20.1729 11.3206 19.1667V19.1667ZM16.0352 21.7896C16.031 21.4417 16.1248 22.2938 16.0352 21.7896V21.7896ZM15.7623 21.1854C15.1081 19.5688 16.3706 22.0396 15.7623 21.1854V21.1854ZM15.3602 20.125C15.2498 19.4583 15.7352 20.9646 15.3602 20.125V20.125ZM16.0143 19.0625C15.5643 18.2708 16.581 15.575 16.6935 17.2479C16.2206 18.55 16.5581 19.2792 16.8873 17.5313C17.4977 16.1563 16.756 20.2458 16.0123 19.0625H16.0143ZM16.6852 15.0542C16.881 14.8146 16.7289 15.3438 16.6852 15.0542V15.0542ZM15.5643 37.1646C15.2977 36.9333 15.5977 37.3125 15.5643 37.1646V37.1646ZM17.8768 38.3333C19.1602 38.6646 19.1539 38.1333 17.9914 37.9771C17.3664 37.3937 15.3956 36.7792 17.1602 37.9042C17.2768 38.2 17.6477 38.1937 17.8748 38.3333H17.8768ZM13.3102 35.3021C14.0185 35.8292 15.9768 36.8 14.3185 35.5021C14.8789 34.8521 13.2477 34.5063 13.7893 34.0729C12.4143 33.2313 12.706 33.3063 13.6685 33.3313C12.0143 32.5938 13.906 32.6479 13.8164 32.2688C13.1789 32.1438 10.6498 31.1458 12.1393 32.3521C10.6268 31.5813 11.7789 32.6396 11.3227 32.5271C9.77476 32.1063 12.6977 33.7042 11.0768 33.3083C11.9623 34.0104 13.4643 35.1083 11.4518 34.0521C11.1852 34.4333 12.8914 35.0104 13.3102 35.3021ZM15.7268 36.6917C18.6664 37.6375 14.2873 35.5333 15.7268 36.6917V36.6917ZM28.1018 44.1875C28.1435 43.6042 27.7018 44.6875 28.1018 44.1875V44.1875ZM29.3768 44.7229C30.0539 44.0667 29.4039 45.7708 30.4998 44.5625C30.5123 43.6979 30.4664 43.1875 29.2393 44.2375C28.9018 44.425 28.7518 45.2229 29.3768 44.7229ZM9.18309 32.0417C8.97476 31.2229 7.72476 31.2292 9.18309 32.0417V32.0417ZM10.5414 32.9333C10.0373 32.0958 8.74143 32.175 10.5414 32.9333V32.9333ZM18.2706 37.5937C19.0248 38.2625 21.7352 38.0854 19.1873 37.6771C18.8081 37.1167 16.7893 37.2521 18.2706 37.5937ZM28.8914 44.1542C30.0539 43.1792 27.7664 44.5875 28.8914 44.1542V44.1542ZM31.3081 45.8125C31.3143 45.5 30.8081 45.95 31.3081 45.8125V45.8125ZM31.3102 45.375C32.5956 44.0125 30.0643 45.4562 31.3102 45.375V45.375ZM5.84351 29.2458C4.74768 27.6833 5.16226 26.9792 4.10393 25.7042C3.90393 24.725 2.29143 22.5104 3.27059 24.8583C4.16643 26.2313 4.43309 28.3563 5.84351 29.2458V29.2458ZM30.906 44.9417C33.2727 43.4125 29.9373 44.275 30.906 44.9417V44.9417ZM32.7123 45.65C33.8998 44.6333 31.9623 45.4375 32.7123 45.65V45.65ZM8.78101 30.3125C9.12059 29.8083 7.90601 30.2479 8.78101 30.3125V30.3125ZM32.3352 45.1646C33.4831 44.425 32.0727 44.5396 32.1268 45.2312L32.3352 45.1646ZM16.7706 35.3542C16.7289 34.8542 16.1643 35.3958 16.7706 35.3542V35.3542ZM17.731 35.9083C17.4268 35.2896 17.2623 36.0063 17.731 35.9083V35.9083ZM34.1768 45.6667C35.6456 44.6042 33.2852 45.4625 33.8685 45.8667L34.1768 45.6667ZM33.6143 45.3958C34.8102 44.3917 32.3498 45.8396 33.6143 45.3958V45.3958ZM36.4893 47.3083C37.2935 46.7708 35.5123 47.1354 36.4893 47.3083V47.3083ZM9.51851 29.95C10.5956 30.1917 13.8227 32.6042 11.9185 30.1167C10.9435 29.8292 11.5289 27.4438 10.5331 27.8667C11.1998 28.9813 11.0831 29.4563 9.68101 28.7542C7.91851 27.8938 8.69143 29.1792 9.03518 29.5333C8.56643 29.6417 9.65601 29.9417 9.51851 29.95V29.95ZM4.61018 26.075C4.80184 25.2771 2.83309 21.6854 3.68101 24.275C3.98518 24.8167 3.95393 25.8458 4.61018 26.075ZM13.6185 31.6292C13.0643 31.1646 13.5914 31.5625 13.6185 31.6292V31.6292ZM14.9852 31.9458C14.9852 31.1021 13.4748 31.6042 14.9852 31.9458V31.9458ZM26.8227 39.4104C26.5977 38.8312 25.931 39.3979 26.8227 39.4104V39.4104ZM27.3914 39.825C27.3081 39.5021 27.0643 39.8875 27.3914 39.825V39.825ZM32.0852 42.7812C32.5352 42.4479 31.5227 42.7396 32.0852 42.7812V42.7812ZM7.06226 26.7C8.35393 26.2 5.67893 26.3438 7.06226 26.7V26.7ZM25.781 38.4937C25.7664 37.6583 24.9581 38.7021 25.781 38.4937V38.4937ZM6.55184 25.5125C7.38101 25.2313 5.78518 25.3271 6.55184 25.5125V25.5125ZM8.95809 26.6792C8.94351 26.4021 8.70393 26.7833 8.95809 26.6792V26.6792ZM38.3123 44.6792C39.381 44.4625 41.8102 45.2208 42.2018 44.3958C40.9081 44.3646 37.7227 43.4833 37.5727 44.6062L37.856 44.6521L38.3143 44.6792H38.3123ZM9.72476 26.8708C9.74351 26.0229 9.06434 26.8396 9.72476 26.8708V26.8708ZM3.39559 22.4792C3.10809 20.8646 2.30184 22.2333 3.39559 22.4792V22.4792ZM4.90393 22.8583C4.92268 22.3396 3.52268 22.3917 4.90393 22.8583V22.8583ZM5.76643 23.2813C5.51643 23.0792 5.57059 23.5354 5.76643 23.2813V23.2813ZM11.1935 26.7604C11.4477 26.5271 10.5893 26.5875 11.1935 26.7604V26.7604ZM5.19351 22.3271C5.04768 21.1083 3.44351 22.1438 5.19351 22.3271V22.3271ZM2.09768 20.3188C2.05601 19.7563 1.79768 20.5313 2.09768 20.3188V20.3188ZM2.55809 19.9708C2.48309 19.3042 2.16226 20.0542 2.55809 19.9708V19.9708ZM5.09976 21.4896C6.17684 21.0667 3.14143 20.6146 4.88101 21.4083L5.09976 21.4896ZM39.1289 42.5083C39.8164 41.8771 38.2539 42.3125 39.1289 42.5083V42.5083ZM43.2414 44.6396C43.5164 43.8229 42.5456 44.7458 43.2414 44.6396V44.6396ZM5.36018 20.1583C5.47476 19.3688 4.50809 20.3146 5.36018 20.1583V20.1583ZM1.74351 17.7354C1.54976 16.6208 1.57684 14.6646 3.43518 15.3271C0.953927 15.8188 5.15184 18.4104 4.62268 16.3646C5.66434 16.4146 6.66434 15.7479 6.11434 16.7604C8.17059 16.5333 9.59559 14.7521 11.581 15C13.1268 14.7958 14.8185 14.6417 16.4852 14.0188C17.856 13.9188 19.1748 12.4438 18.4227 11.5708C16.556 11.4125 14.5998 11.6458 12.5331 12.0563C10.2456 12.5313 8.16643 13.4354 5.85601 13.825C3.60601 14.1271 6.30809 14.6583 5.66434 14.775C4.48934 15.1833 7.06434 15.4583 5.51226 15.8875C4.55393 15.7042 3.55393 15.375 3.96434 14.3667C1.80809 14.6438 -0.0877398 15.5396 1.61643 17.7333H1.74351V17.7354ZM6.93934 15.0896C7.44559 13.2271 9.64768 16.6208 7.76851 15.3354C7.54351 15.1688 7.17476 15.0313 6.93934 15.0875V15.0896ZM7.03726 14.1854C7.76643 13.6438 7.42476 14.4896 7.03726 14.1854V14.1854ZM7.96434 14.2021C8.03101 13.3458 10.0852 14.6563 8.30393 14.5104L7.96434 14.2021ZM9.23101 13.6917C9.69351 13.15 9.36434 14.1729 9.23101 13.6917V13.6917ZM9.55601 13.475C10.3268 12.55 13.9206 12.8854 11.2893 13.3854C10.5852 12.8542 10.0435 13.6979 9.55601 13.475ZM14.2456 12.7521C14.1289 10.2229 16.5748 13.6521 14.2456 12.7521V12.7521ZM15.5768 12.7438C16.0623 11.4688 17.4643 12.2333 15.8018 12.4875C15.8373 12.6229 15.7518 13.1458 15.5768 12.7438ZM4.83726 19.5042C6.28934 18.6146 3.29351 18.7333 4.83726 19.5042V19.5042ZM5.91018 19.8042C6.42059 19.2625 4.80393 19.5833 5.91018 19.8042V19.8042ZM2.74351 17.5542C3.57476 16.9187 1.76226 17.3125 2.74351 17.5542V17.5542ZM45.6664 44.4083C45.6914 43.6687 45.0331 44.7417 45.6664 44.4083V44.4083ZM41.306 41.4312C41.431 40.5792 40.7435 41.5062 41.306 41.4312V41.4312ZM46.8685 44.6958C48.0289 44.6958 50.3852 44.3354 47.8581 44.3354C47.4623 44.3979 45.5477 44.3854 46.8664 44.6958H46.8685ZM6.85393 19.2792C7.79351 19.2167 8.32476 18.2438 6.67268 18.3C4.11018 18.0354 8.93101 19.175 6.34351 18.85C5.99559 19.0792 6.83518 19.3438 6.85393 19.2813V19.2792ZM7.68309 19.7C7.58309 19.0958 7.39143 20.0208 7.68309 19.7V19.7ZM8.66226 17.0813C9.07268 16.575 8.09976 16.9458 8.66226 17.0813V17.0813ZM5.53726 11.8563C7.21643 11.2854 9.51018 10.6458 10.3018 12.1375C9.49559 11.1667 9.97684 10.2125 10.7393 11.6313C11.8143 13.0667 12.3539 10.9792 11.6518 10.4958C12.4498 11.4875 13.3581 11.9563 12.1873 10.5583C13.4581 9.02917 9.63934 10.7604 8.77059 10.7417C8.35393 10.9292 4.45601 11.7354 5.53934 11.8563H5.53726ZM6.52059 9.975C7.47893 9.25208 9.82893 10.4042 8.32059 9.25625C8.17476 9.12708 5.01643 10.1271 6.52059 9.975ZM10.0081 10.1188C11.1289 10.1458 9.52684 8.61458 10.8602 9.30833C10.6414 8.59167 9.30601 8.45833 8.65393 8.17292C8.28518 8.82708 9.40393 10.1271 10.0081 10.1188ZM7.13309 6.95208C7.52059 6.42708 6.45393 7.21875 7.13309 6.95208V6.95208ZM8.55809 7.29375C10.3623 7.05417 8.09976 6.51667 8.19559 7.27292L8.55809 7.29375ZM5.89768 5.21042C4.62684 3.55208 8.28518 5.48958 6.99559 3.75208C5.90809 2.8875 4.86434 4.72708 5.89768 5.21042ZM22.1998 13.9917C22.7831 12.9583 19.7935 12.6 21.8081 13.6271C21.9935 13.6896 21.9518 14.0646 22.1998 13.9917Z" fill="#E21B6D"/>
</g>
<defs>
<clipPath id="clip0_45_12">
<rect width="50" height="50" fill="white"/>
</clipPath>
</defs>
</svg>
