<svg width="50" height="50" viewBox="0 0 50 50" fill="none" xmlns="http://www.w3.org/2000/svg">
<g clip-path="url(#clip0_45_14)">
<path d="M35.15 50C34.9958 50 34.8396 49.9646 34.6958 49.8958L27.5625 46.4354C27.2021 46.2625 26.975 45.8958 26.975 45.4958C26.975 45.0958 27.2041 44.7312 27.5666 44.5583C30.7104 43.05 32.2271 41.7625 33.1625 39.8062C34.1937 37.7042 34.5083 35.0896 34.5083 28.6062V13.1396C34.5083 12.5646 34.975 12.0979 35.55 12.0979H43.2312C43.8062 12.0979 44.2729 12.5667 44.2729 13.1417V31.3042C44.2729 37.7729 43.7916 40.8875 42.3604 43.6375C40.9875 46.3854 39.1604 48.0833 35.6271 49.8854C35.475 49.9625 35.3125 50 35.15 50ZM30.3312 45.4625L35.1354 47.7917C37.9583 46.2917 39.3896 44.9208 40.5041 42.6917C41.7646 40.2625 42.1896 37.3937 42.1896 31.3042V14.1833L36.5916 14.1812V28.6083C36.5916 35.5479 36.2437 38.2625 35.0396 40.7167C34.1104 42.6562 32.725 44.0792 30.3312 45.4625Z" fill="#E21B6D"/>
<path d="M21.0354 39.4187C11.0208 39.4187 5.72913 34.6958 5.72913 25.7583C5.72913 17.1208 11.327 11.5396 19.9875 11.5396C20.8583 11.5396 21.5812 11.5875 22.2875 11.7V1.04167C22.2875 0.466667 22.7541 0 23.3291 0H31.0104C31.5854 0 32.052 0.466667 32.052 1.04167V37.3104C32.052 37.8083 31.6979 38.2375 31.2083 38.3333C27.2187 39.1042 24.2729 39.4187 21.0354 39.4187ZM19.9875 13.625C12.5916 13.625 7.81246 18.3896 7.81246 25.7604C7.81246 33.4417 12.2625 37.3375 21.0354 37.3375C23.9 37.3375 26.5416 37.0771 29.9666 36.4479V2.08333H24.3687V12.9896C24.3687 13.3125 24.2187 13.6187 23.9625 13.8146C23.7062 14.0104 23.3729 14.0792 23.0583 13.9937C22.0562 13.7271 21.1937 13.625 19.9875 13.625ZM31.0083 37.3104H31.0291H31.0083ZM20.6875 33.1083C16.1583 33.1083 13.5604 30.375 13.5604 25.6062C13.5604 20.7521 16.2375 17.8521 20.7229 17.8479C20.725 17.8479 20.725 17.8479 20.727 17.8479H20.7291C20.7437 17.8479 20.7625 17.8479 20.775 17.8479C21.902 17.8521 22.8375 18.0146 23.677 18.3146C24.0916 18.4625 24.3687 18.8542 24.3687 19.2958V31.8625C24.3687 32.3833 23.9854 32.8208 23.4708 32.8937C22.3625 33.05 21.6083 33.1083 20.6875 33.1083ZM20.7395 19.9313C20.7375 19.9313 20.7375 19.9313 20.7354 19.9313C16.525 19.9313 15.6437 23.0167 15.6437 25.6062C15.6437 29.2021 17.3395 31.025 20.6875 31.025C21.2458 31.025 21.7229 31.0021 22.2875 30.9437V20.0792C21.8208 19.975 21.3125 19.9458 20.8291 19.9271C20.7979 19.9292 20.7687 19.9313 20.7395 19.9313ZM43.2291 10.1625H35.5479C34.9729 10.1625 34.5062 9.69583 34.5062 9.12083V1.08333C34.5062 0.508333 34.9729 0.0416667 35.5479 0.0416667H43.2291C43.8041 0.0416667 44.2708 0.508333 44.2708 1.08333V9.12083C44.2708 9.69792 43.8041 10.1625 43.2291 10.1625ZM36.5895 8.07917H42.1875V2.125H36.5895V8.07917Z" fill="#E21B6D"/>
</g>
<defs>
<clipPath id="clip0_45_14">
<rect width="50" height="50" fill="white"/>
</clipPath>
</defs>
</svg>
