<svg width="50" height="50" viewBox="0 0 50 50" fill="none" xmlns="http://www.w3.org/2000/svg">
<g clip-path="url(#clip0_45_8)">
<path d="M29.8125 0.375L31.6875 0.791667L33.2083 1.33333L34.4375 1.95833L35.375 2.625L36.0833 3.33333L36.6042 4.04167L36.9375 4.72917L37.1458 5.35417L37.2292 5.89583L37.2708 6.3125L37.25 6.58333V17.7083L37.1458 19.0208L36.875 20.1667L36.4375 21.125L35.8958 21.9167L35.2708 22.5625L34.5833 23.0833L33.8542 23.4792L33.125 23.7708L32.4375 23.9792L31.8125 24.125L31.2708 24.2083L30.8333 24.25H18.3958L16.9583 24.3542L15.7292 24.6458L14.6875 25.1042L13.8333 25.6667L13.1458 26.3333L12.5833 27.0625L12.1667 27.8125L11.8542 28.5833L11.6458 29.3125L11.5 29.9792L11.4167 30.5417L11.375 30.9792V37.3542H6.72917L6.29167 37.2917L5.70833 37.1458L5.04167 36.8958L4.3125 36.5208L3.5625 35.9792L2.8125 35.2292L2.08333 34.2708L1.41667 33.0417L0.833333 31.5208L0.395833 29.6875L0.104167 27.5L0 24.9375L0.125 22.3958L0.458333 20.2292L0.958333 18.4167L1.625 16.9375L2.375 15.75L3.20833 14.8333L4.08333 14.1458L4.95833 13.6458L5.79167 13.3125L6.54167 13.1042L7.20833 13L7.70833 12.9792H8.04167L8.16667 13H25.1667V11.2708H13L12.9792 5.54167L12.9375 4.77083L13.0417 4.0625L13.2708 3.41667L13.625 2.83333L14.1458 2.29167L14.7917 1.8125L15.5833 1.39583L16.5 1.02083L17.5625 0.708333L18.7708 0.458333L20.1042 0.25L21.5833 0.125L23.1875 0.0416667L24.9375 0L27.5833 0.104167L29.8125 0.375V0.375ZM16.6875 4.5L16.2083 5.1875L16.0417 6.04167L16.2083 6.89583L16.6875 7.60417L17.375 8.0625L18.2292 8.25L19.0833 8.0625L19.7708 7.60417L20.25 6.89583L20.4167 6.04167L20.25 5.1875L19.7708 4.5L19.0833 4.04167L18.2292 3.85417L17.375 4.04167L16.6875 4.5ZM43.9583 12.7292L44.5417 12.8542L45.2083 13.1042L45.9375 13.4792L46.6875 14.0417L47.4375 14.7708L48.1667 15.75L48.8333 16.9792L49.4167 18.5L49.8542 20.3333L50.1458 22.5L50.25 25.0625L50.125 27.625L49.7917 29.7917L49.2917 31.5833L48.625 33.0625L47.875 34.25L47.0417 35.1875L46.1667 35.875L45.2917 36.375L44.4583 36.7083L43.7083 36.8958L43.0417 37L42.5417 37.0417L42.2083 37.0208H25.0833V38.7292H37.25L37.2708 44.4792L37.3125 45.2292L37.2083 45.9375L36.9792 46.5833L36.625 47.1875L36.1042 47.7083L35.4583 48.2083L34.6667 48.625L33.75 48.9792L32.6875 49.2917L31.4792 49.5625L30.1458 49.75L28.6667 49.8958L27.0625 49.9792L25.3125 50L22.6667 49.9167L20.4375 49.625L18.5625 49.2083L17.0417 48.6875L15.8125 48.0625L14.875 47.375L14.1667 46.6667L13.6458 45.9583L13.3125 45.2708L13.1042 44.6458L13.0208 44.125L12.9792 43.7083L13 43.4375V32.3125L13.1042 30.9792L13.375 29.8542L13.8125 28.8958L14.3542 28.1042L14.9792 27.4375L15.6667 26.9375L16.3958 26.5208L17.125 26.2292L17.8125 26.0208L18.4375 25.8958L18.9792 25.8125L19.4167 25.7708L19.6875 25.75H31.8542L33.2917 25.6458L34.5208 25.3542L35.5625 24.9167L36.4167 24.3333L37.1042 23.6667L37.6667 22.9375L38.0833 22.1875L38.3958 21.4375L38.6042 20.7083L38.75 20.0417L38.8333 19.4583L38.875 19.0208V12.6458H43.2292L43.5208 12.6667L43.9583 12.7292V12.7292ZM30.4792 42.4167L30 43.1042L29.8333 43.9583L30 44.8125L30.4792 45.5L31.1667 45.9792L32.0208 46.1458L32.875 45.9792L33.5625 45.5L34.0417 44.8125L34.2083 43.9583L34.0417 43.1042L33.5625 42.4167L32.875 41.9375L32.0208 41.7708L31.1667 41.9375L30.4792 42.4167Z" fill="#E21B6D"/>
</g>
<defs>
<clipPath id="clip0_45_8">
<rect width="50" height="50" fill="white"/>
</clipPath>
</defs>
</svg>
