<svg width="50" height="50" viewBox="0 0 50 50" fill="none" xmlns="http://www.w3.org/2000/svg">
<path d="M14.4251 8.64215H16.2119V10.5992H18.1663V4.75455H16.2119V6.686H14.4251V4.75455H12.4716V10.5992H14.4251V8.64215Z" fill="#E21B6D"/>
<path d="M20.7344 10.5992H22.6879V6.69394H24.4068V4.75455H19.0155V6.69394H20.7344V10.5992Z" fill="#E21B6D"/>
<path d="M27.1744 7.70376L28.5203 9.78074H28.5529L29.8961 7.70376V10.5992H31.8426V4.75455H29.8053L28.5529 6.81124L27.3006 4.75455H25.2642V10.5992H27.1744V7.70376Z" fill="#E21B6D"/>
<path d="M37.5152 8.66861H34.768V4.75455H32.8145V10.5992H37.5152V8.66861Z" fill="#E21B6D"/>
<path d="M9.65637 13.1639L12.4504 44.5011L24.9925 47.9821L37.5443 44.5028L40.3436 13.1639H9.65637V13.1639ZM34.282 23.4121H24.9995H19.5738L19.9248 27.3482H24.9995H33.9327L32.8788 39.1512L24.9995 41.334L24.9942 41.3358L17.1203 39.1512L16.5708 32.9776H20.4284L20.7142 36.1799L24.9951 37.3371L25.0004 37.3353L29.2858 36.1782L29.732 31.1934H25.0004H16.4112L15.3731 19.5703H24.9995H34.6251L34.282 23.4121Z" fill="#E21B6D"/>
</svg>
