<svg width="50" height="50" viewBox="0 0 50 50" fill="none" xmlns="http://www.w3.org/2000/svg">
<path d="M25 5.46875C14.2187 5.46875 5.46875 14.2187 5.46875 25C5.46875 35.7813 14.2187 44.5312 25 44.5312C35.7813 44.5312 44.5312 35.7813 44.5312 25C44.5312 14.2187 35.7813 5.46875 25 5.46875Z" fill="#46483E"/>
<path d="M25 37.4609C24.6484 37.4609 24.3359 37.3828 24.0234 37.1875L20.9766 35.3906C20.5078 35.1172 20.7422 35.0391 20.8984 35C21.5234 34.7656 21.6406 34.7266 22.2656 34.375C22.3438 34.3359 22.4219 34.3359 22.5 34.4141L24.8438 35.8203C24.9219 35.8594 25.0391 35.8594 25.1172 35.8203L34.2578 30.5469C34.3359 30.5078 34.4141 30.3906 34.4141 30.3125V19.7656C34.4141 19.6484 34.375 19.5703 34.2578 19.5313L25.1563 14.2188C25.0781 14.1797 24.9609 14.1797 24.8828 14.2188L15.7422 19.4531C15.6641 19.4922 15.5859 19.6094 15.5859 19.6875V30.2344C15.5859 30.3125 15.625 30.4297 15.7422 30.4688L18.2422 31.9141C19.6094 32.5781 20.4297 31.7969 20.4297 30.9766V20.625C20.4297 20.4688 20.5469 20.3516 20.7031 20.3516H21.875C22.0313 20.3516 22.1484 20.4688 22.1484 20.625V31.0156C22.1484 32.8516 21.1719 33.8672 19.4531 33.8672C18.9063 33.8672 18.5156 33.8672 17.3438 33.2813L14.9609 31.9141C14.375 31.5625 13.9844 30.9375 13.9844 30.2344V19.6875C13.9844 19.0234 14.3359 18.3594 14.9609 18.0078L24.1016 12.7344C24.6875 12.4219 25.4688 12.4219 26.0156 12.7344L35.1563 18.0078C35.7422 18.3594 36.1328 18.9844 36.1328 19.6875V30.2344C36.1328 30.8984 35.7813 31.5625 35.1563 31.9141L25.9766 37.2266C25.6641 37.3828 25.3516 37.4609 25 37.4609Z" fill="#E21B6D"/>
<path d="M27.8516 30.1953C23.8672 30.1953 23.0078 28.3594 23.0078 26.8359C23.0078 26.6797 23.125 26.5625 23.2812 26.5625H24.4531C24.5703 26.5625 24.6875 26.6406 24.7266 26.7969C24.8828 28.0078 25.4297 28.5937 27.8516 28.5937C29.7656 28.5937 30.5859 28.1641 30.5859 27.1484C30.5859 26.5625 30.3516 26.1328 27.3437 25.8203C24.8437 25.5859 23.2812 25.0391 23.2812 23.0078C23.2812 21.1719 24.8438 20.0781 27.4609 20.0781C30.3906 20.0781 31.8359 21.0937 32.0312 23.2812C32.0312 23.3594 31.9922 23.4375 31.9531 23.4766C31.9141 23.5156 31.8359 23.5547 31.7578 23.5547H30.5859C30.4687 23.5547 30.3516 23.4766 30.3125 23.3594C30.0391 22.1094 29.3359 21.6797 27.4609 21.6797C25.3516 21.6797 25.1172 22.4219 25.1172 22.9687C25.1172 23.6328 25.3906 23.8281 28.2422 24.2187C31.0547 24.5703 32.3828 25.1172 32.3828 27.0703C32.3828 29.0625 30.7422 30.1953 27.8516 30.1953Z" fill="#E21B6D"/>
</svg>
