<svg width="30" height="30" viewBox="0 0 30 30" fill="none" xmlns="http://www.w3.org/2000/svg">
<g style="mix-blend-mode:exclusion">
<path d="M28.75 3.74987C27.553 4.59422 26.2276 5.24001 24.825 5.66237C24.0722 4.79676 23.0717 4.18324 21.9588 3.90478C20.8459 3.62632 19.6744 3.69637 18.6026 4.10544C17.5308 4.51451 16.6105 5.24288 15.9662 6.19202C15.3219 7.14116 14.9846 8.2653 15 9.41238V10.6624C12.8033 10.7193 10.6266 10.2321 8.66375 9.24418C6.70092 8.25622 5.01289 6.79817 3.74999 4.99987C3.74999 4.99987 -1.25001 16.2499 9.99999 21.2499C7.42565 22.9973 4.35894 23.8735 1.24999 23.7499C12.5 29.9999 26.25 23.7499 26.25 9.37488C26.2488 9.02669 26.2154 8.67937 26.15 8.33738C27.4257 7.07924 28.326 5.49077 28.75 3.74987V3.74987Z" stroke="#E21B6D" stroke-width="2" stroke-linecap="round" stroke-linejoin="round"/>
</g>
</svg>
