<svg width="68" height="19" viewBox="0 0 68 19" fill="none" xmlns="http://www.w3.org/2000/svg">
<g style="mix-blend-mode:soft-light">
<path d="M11.79 1.644V15H7.92V14.19C7.332 14.85 6.432 15.18 5.22 15.18C4.356 15.18 3.558 14.976 2.826 14.568C2.106 14.148 1.53 13.548 1.098 12.768C0.678 11.988 0.468 11.088 0.468 10.068C0.468 9.048 0.678 8.154 1.098 7.386C1.53 6.606 2.106 6.012 2.826 5.604C3.558 5.184 4.356 4.974 5.22 4.974C6.312 4.974 7.146 5.256 7.722 5.82V1.644H11.79ZM6.192 12.012C6.66 12.012 7.044 11.844 7.344 11.508C7.644 11.16 7.794 10.68 7.794 10.068C7.794 9.456 7.644 8.982 7.344 8.646C7.044 8.31 6.66 8.142 6.192 8.142C5.724 8.142 5.34 8.31 5.04 8.646C4.74 8.982 4.59 9.456 4.59 10.068C4.59 10.68 4.74 11.16 5.04 11.508C5.34 11.844 5.724 12.012 6.192 12.012ZM13.5014 18.672C12.4574 18.672 11.6234 18.51 10.9994 18.186L11.9714 15.36C12.2594 15.516 12.5654 15.594 12.8894 15.594C13.1414 15.594 13.3454 15.498 13.5014 15.306C13.6574 15.126 13.7354 14.844 13.7354 14.46V5.154H17.8034V14.496C17.8034 15.78 17.4194 16.794 16.6514 17.538C15.8954 18.294 14.8454 18.672 13.5014 18.672ZM15.7694 4.362C15.0374 4.362 14.4434 4.17 13.9874 3.786C13.5434 3.39 13.3214 2.892 13.3214 2.292C13.3214 1.692 13.5434 1.2 13.9874 0.815999C14.4434 0.419999 15.0374 0.221999 15.7694 0.221999C16.5134 0.221999 17.1074 0.407999 17.5514 0.78C17.9954 1.152 18.2174 1.632 18.2174 2.22C18.2174 2.844 17.9954 3.36 17.5514 3.768C17.1074 4.164 16.5134 4.362 15.7694 4.362ZM24.0131 4.974C25.7411 4.974 27.0611 5.364 27.9731 6.144C28.8851 6.912 29.3411 8.1 29.3411 9.708V15H25.5611V13.704C25.0931 14.688 24.1631 15.18 22.7711 15.18C21.9911 15.18 21.3251 15.048 20.7731 14.784C20.2331 14.508 19.8191 14.142 19.5311 13.686C19.2551 13.218 19.1171 12.696 19.1171 12.12C19.1171 11.148 19.4891 10.41 20.2331 9.906C20.9771 9.402 22.1051 9.15 23.6171 9.15H25.2551C25.1231 8.382 24.5051 7.998 23.4011 7.998C22.9571 7.998 22.5071 8.07 22.0511 8.214C21.5951 8.346 21.2051 8.532 20.8811 8.772L19.5851 6.09C20.1491 5.742 20.8271 5.472 21.6191 5.28C22.4231 5.076 23.2211 4.974 24.0131 4.974ZM23.9951 12.732C24.2831 12.732 24.5411 12.654 24.7691 12.498C24.9971 12.342 25.1651 12.108 25.2731 11.796V11.112H24.2651C23.4371 11.112 23.0231 11.388 23.0231 11.94C23.0231 12.168 23.1071 12.36 23.2751 12.516C23.4551 12.66 23.6951 12.732 23.9951 12.732ZM37.9392 4.974C39.1512 4.974 40.1232 5.34 40.8552 6.072C41.5992 6.804 41.9712 7.908 41.9712 9.384V15H37.9032V10.086C37.9032 8.958 37.5012 8.394 36.6972 8.394C36.2412 8.394 35.8692 8.556 35.5812 8.88C35.3052 9.192 35.1672 9.69 35.1672 10.374V15H31.0992V5.154H34.9692V6.126C35.3532 5.742 35.7972 5.454 36.3012 5.262C36.8052 5.07 37.3512 4.974 37.9392 4.974ZM54.9117 5.154V13.038C54.9117 14.91 54.3897 16.314 53.3457 17.25C52.3137 18.198 50.8377 18.672 48.9177 18.672C47.9337 18.672 47.0157 18.564 46.1637 18.348C45.3117 18.144 44.5857 17.844 43.9857 17.448L45.3537 14.676C45.7377 14.964 46.2237 15.198 46.8117 15.378C47.3997 15.558 47.9637 15.648 48.5037 15.648C49.3197 15.648 49.9137 15.474 50.2857 15.126C50.6577 14.778 50.8437 14.268 50.8437 13.596V13.416C50.2317 14.112 49.3257 14.46 48.1257 14.46C47.2857 14.46 46.4997 14.268 45.7677 13.884C45.0477 13.488 44.4717 12.93 44.0397 12.21C43.6077 11.478 43.3917 10.644 43.3917 9.708C43.3917 8.772 43.6077 7.944 44.0397 7.224C44.4717 6.504 45.0477 5.952 45.7677 5.568C46.4997 5.172 47.2857 4.974 48.1257 4.974C49.4697 4.974 50.4417 5.406 51.0417 6.27V5.154H54.9117ZM49.2057 11.292C49.6857 11.292 50.0817 11.148 50.3937 10.86C50.7177 10.56 50.8797 10.176 50.8797 9.708C50.8797 9.24 50.7177 8.862 50.3937 8.574C50.0817 8.286 49.6857 8.142 49.2057 8.142C48.7137 8.142 48.3057 8.286 47.9817 8.574C47.6697 8.862 47.5137 9.24 47.5137 9.708C47.5137 10.176 47.6757 10.56 47.9997 10.86C48.3237 11.148 48.7257 11.292 49.2057 11.292ZM61.9125 15.18C60.8205 15.18 59.8365 14.964 58.9605 14.532C58.0965 14.088 57.4185 13.482 56.9265 12.714C56.4345 11.934 56.1885 11.052 56.1885 10.068C56.1885 9.084 56.4345 8.208 56.9265 7.44C57.4185 6.66 58.0965 6.054 58.9605 5.622C59.8365 5.19 60.8205 4.974 61.9125 4.974C63.0165 4.974 64.0005 5.19 64.8645 5.622C65.7405 6.054 66.4185 6.66 66.8985 7.44C67.3905 8.208 67.6365 9.084 67.6365 10.068C67.6365 11.052 67.3905 11.934 66.8985 12.714C66.4185 13.482 65.7405 14.088 64.8645 14.532C64.0005 14.964 63.0165 15.18 61.9125 15.18ZM61.9125 12.012C62.3805 12.012 62.7645 11.844 63.0645 11.508C63.3645 11.16 63.5145 10.68 63.5145 10.068C63.5145 9.456 63.3645 8.982 63.0645 8.646C62.7645 8.31 62.3805 8.142 61.9125 8.142C61.4445 8.142 61.0605 8.31 60.7605 8.646C60.4605 8.982 60.3105 9.456 60.3105 10.068C60.3105 10.68 60.4605 11.16 60.7605 11.508C61.0605 11.844 61.4445 12.012 61.9125 12.012Z" fill="#1BE2D6"/>
</g>
</svg>
