<svg width="42" height="18" viewBox="0 0 42 18" fill="none" xmlns="http://www.w3.org/2000/svg">
<g style="mix-blend-mode:soft-light">
<path d="M4.644 7.232C4.644 7.772 4.56 8.186 4.392 8.474C4.224 8.75 3.954 8.948 3.582 9.068C3.954 9.188 4.224 9.392 4.392 9.68C4.56 9.956 4.644 10.364 4.644 10.904V14.324C4.644 14.768 4.752 15.104 4.968 15.332C5.196 15.572 5.532 15.692 5.976 15.692H6.354V17.492H5.454C4.446 17.492 3.684 17.24 3.168 16.736C2.652 16.244 2.394 15.518 2.394 14.558V10.85C2.394 10.274 2.124 9.986 1.584 9.986H0.99V8.15H1.584C2.124 8.15 2.394 7.862 2.394 7.286V3.578C2.394 2.618 2.652 1.892 3.168 1.4C3.684 0.895999 4.446 0.643999 5.454 0.643999H6.354V2.444H5.976C5.532 2.444 5.196 2.564 4.968 2.804C4.752 3.032 4.644 3.368 4.644 3.812V7.232ZM12.5481 14.126C11.5521 14.126 10.6581 13.916 9.86611 13.496C9.07411 13.076 8.45611 12.494 8.01211 11.75C7.56811 10.994 7.34611 10.142 7.34611 9.194C7.34611 8.246 7.56811 7.4 8.01211 6.656C8.45611 5.912 9.06811 5.33 9.84811 4.91C10.6401 4.49 11.5401 4.28 12.5481 4.28C13.4961 4.28 14.3241 4.472 15.0321 4.856C15.7521 5.24 16.2921 5.792 16.6521 6.512L14.9241 7.52C14.6481 7.076 14.3001 6.746 13.8801 6.53C13.4721 6.302 13.0221 6.188 12.5301 6.188C11.6901 6.188 10.9941 6.464 10.4421 7.016C9.89011 7.556 9.61411 8.282 9.61411 9.194C9.61411 10.106 9.88411 10.838 10.4241 11.39C10.9761 11.93 11.6781 12.2 12.5301 12.2C13.0221 12.2 13.4721 12.092 13.8801 11.876C14.3001 11.648 14.6481 11.312 14.9241 10.868L16.6521 11.876C16.2801 12.596 15.7341 13.154 15.0141 13.55C14.3061 13.934 13.4841 14.126 12.5481 14.126ZM21.5671 14.126C20.7871 14.126 20.0251 14.024 19.2811 13.82C18.5371 13.616 17.9431 13.358 17.4991 13.046L18.3631 11.336C18.7951 11.624 19.3111 11.858 19.9111 12.038C20.5231 12.206 21.1231 12.29 21.7111 12.29C23.0551 12.29 23.7271 11.936 23.7271 11.228C23.7271 10.892 23.5531 10.658 23.2051 10.526C22.8691 10.394 22.3231 10.268 21.5671 10.148C20.7751 10.028 20.1271 9.89 19.6231 9.734C19.1311 9.578 18.6991 9.308 18.3271 8.924C17.9671 8.528 17.7871 7.982 17.7871 7.286C17.7871 6.374 18.1651 5.648 18.9211 5.108C19.6891 4.556 20.7211 4.28 22.0171 4.28C22.6771 4.28 23.3371 4.358 23.9971 4.514C24.6571 4.658 25.1971 4.856 25.6171 5.108L24.7531 6.818C23.9371 6.338 23.0191 6.098 21.9991 6.098C21.3391 6.098 20.8351 6.2 20.4871 6.404C20.1511 6.596 19.9831 6.854 19.9831 7.178C19.9831 7.538 20.1631 7.796 20.5231 7.952C20.8951 8.096 21.4651 8.234 22.2331 8.366C23.0011 8.486 23.6311 8.624 24.1231 8.78C24.6151 8.936 25.0351 9.2 25.3831 9.572C25.7431 9.944 25.9231 10.472 25.9231 11.156C25.9231 12.056 25.5331 12.776 24.7531 13.316C23.9731 13.856 22.9111 14.126 21.5671 14.126ZM30.8308 14.126C30.0508 14.126 29.2888 14.024 28.5448 13.82C27.8008 13.616 27.2068 13.358 26.7628 13.046L27.6268 11.336C28.0588 11.624 28.5748 11.858 29.1748 12.038C29.7868 12.206 30.3868 12.29 30.9748 12.29C32.3188 12.29 32.9908 11.936 32.9908 11.228C32.9908 10.892 32.8168 10.658 32.4688 10.526C32.1328 10.394 31.5868 10.268 30.8308 10.148C30.0388 10.028 29.3908 9.89 28.8868 9.734C28.3948 9.578 27.9628 9.308 27.5908 8.924C27.2308 8.528 27.0508 7.982 27.0508 7.286C27.0508 6.374 27.4288 5.648 28.1848 5.108C28.9528 4.556 29.9848 4.28 31.2808 4.28C31.9408 4.28 32.6008 4.358 33.2608 4.514C33.9208 4.658 34.4608 4.856 34.8808 5.108L34.0168 6.818C33.2008 6.338 32.2828 6.098 31.2628 6.098C30.6028 6.098 30.0988 6.2 29.7508 6.404C29.4148 6.596 29.2468 6.854 29.2468 7.178C29.2468 7.538 29.4268 7.796 29.7868 7.952C30.1588 8.096 30.7288 8.234 31.4968 8.366C32.2648 8.486 32.8948 8.624 33.3868 8.78C33.8788 8.936 34.2988 9.2 34.6468 9.572C35.0068 9.944 35.1868 10.472 35.1868 11.156C35.1868 12.056 34.7968 12.776 34.0168 13.316C33.2368 13.856 32.1748 14.126 30.8308 14.126ZM41.3364 8.15V9.986H40.7244C40.4724 9.986 40.2744 10.058 40.1304 10.202C39.9984 10.346 39.9324 10.562 39.9324 10.85V14.558C39.9324 15.518 39.6684 16.244 39.1404 16.736C38.6244 17.24 37.8624 17.492 36.8544 17.492H35.9544V15.692H36.3324C36.7884 15.692 37.1244 15.572 37.3404 15.332C37.5684 15.104 37.6824 14.768 37.6824 14.324V10.904C37.6824 10.352 37.7604 9.938 37.9164 9.662C38.0844 9.386 38.3544 9.188 38.7264 9.068C38.3544 8.948 38.0844 8.75 37.9164 8.474C37.7604 8.198 37.6824 7.784 37.6824 7.232V3.812C37.6824 3.368 37.5684 3.032 37.3404 2.804C37.1244 2.564 36.7884 2.444 36.3324 2.444H35.9544V0.643999H36.8544C37.8624 0.643999 38.6244 0.895999 39.1404 1.4C39.6684 1.892 39.9324 2.618 39.9324 3.578V7.286C39.9324 7.574 39.9984 7.79 40.1304 7.934C40.2744 8.078 40.4724 8.15 40.7244 8.15H41.3364Z" fill="#1BE2D6"/>
</g>
</svg>
